# Created by Kenney (www.kenney.nl)

mtllib multitool.mtl

g mergedBlocks

v -0.2 0.1079518 -0.6000001
v 0.2 0.1079518 -0.6000001
v -0.2 0.2079518 -0.7000001
v 0.2 0.2079518 -0.7000001
v -0.2 0.2079518 -0.5000001
v -0.2 0.1079518 -0.5000001
v 0.2 0.2079518 -0.5000001
v 0.2 0.1079518 -0.5000001
v 0.2 0.4499999 -0.7000001
v 0.2 0.4499999 -0.5000001
v -0.2 0.4499999 -0.7000001
v -0.2 0.4499999 -0.5000001
v -0.15 0.5 -0.7000001
v -0.15 0.5 -0.5000001
v 0.15 0.5 -0.7000001
v 0.15 0.5 -0.5000001
v 0.1 -0.7 -0.1
v 0.1 -0.7 -0.4
v -0.1 -0.7 -0.1
v -0.1 -0.7 -0.4
v 0.1 -0.4 0.1
v -0.1 -0.4 0.1
v 0.05 -0.4 0.1
v -0.05 -0.4 0.1
v 0.1 -0.6 -0.5
v -0.1 -0.6 -0.5
v 0.1 0 0.1
v 0.05 0 -0.3
v 0.1 0 -0.4
v -0.1 0 -0.4
v -0.05 0 -0.3
v -0.05 0 0.1
v -0.1 0 0.1
v 0.05 0 0.1
v 0.05 -0.3 0.1
v 0.05 -0.2 0.1
v -0.05 -0.3 0.1
v -0.05 -0.2 0.1
v 0.1 -0.1 -0.5
v -0.1 -0.1 -0.5
v -0.1 -0.2 -0.5
v 0.1 -0.2 -0.5
v -0.1 -0.6 -0.4
v -0.1 -0.6 -0.3
v -0.1 -0.2 -0.4
v -0.1 -0.6 -0.1535184
v -0.1 -0.3697224 1.443823E-15
v -0.1 -0.2 1.443823E-15
v -0.1 -0.2 -0.3
v 0.1 -0.2 -0.4
v 0.1 -0.2 -0.3
v 0.1 -0.6 -0.4
v 0.1 -0.2 1.443823E-15
v 0.1 -0.3697224 1.443823E-15
v 0.1 -0.6 -0.3
v 0.1 -0.6 -0.1535184
v 0.1845 -0.06376916 0.5
v -0.1059 0.06093851 0.5
v -0.1785 -0.06376916 0.5
v -0.36 0.248 0.5
v -0.2148 0.248 0.5
v -0.1785 0.5597692 0.5
v -0.1059 0.4350615 0.5
v 0.1119 0.4350615 0.5
v 0.1119 0.06093851 0.5
v 0.3660001 0.248 0.5
v 0.2208 0.248 0.5
v 0.1845 0.5597692 0.5
v 0.1845 -0.06376916 0.94
v -0.1422 -0.001415342 0.94
v -0.1785 -0.06376916 0.94
v -0.36 0.248 0.94
v -0.2874 0.248 0.94
v -0.1785 0.5597692 0.94
v -0.1422 0.4974153 0.94
v 0.1482 0.4974153 0.94
v 0.1482 -0.001415342 0.94
v 0.3660001 0.248 0.94
v 0.2934 0.248 0.94
v 0.1845 0.5597692 0.94
v 0.3660001 0.248 1.05
v 0.1845 -0.06376916 1.05
v -0.1785 0.5597692 1.05
v -0.36 0.248 1.05
v 0.1845 0.5597692 1.05
v -0.36 0.248 0.61
v -0.1785 -0.06376916 0.61
v 0.1845 0.5597692 0.61
v -0.1785 0.5597692 0.61
v 0.3660001 0.248 0.61
v 0.1845 -0.06376916 0.61
v 0.1482 -0.001415342 0.61
v 0.2934 0.248 0.61
v 0.1482 0.4974153 0.61
v -0.1422 0.4974153 0.61
v -0.1422 -0.001415342 0.61
v -0.2874 0.248 0.61
v -0.1785 -0.06376916 1.05
v 0.1119 0.06093851 1.05
v 0.2208 0.248 1.05
v 0.1119 0.4350615 1.05
v -0.1059 0.4350615 1.05
v -0.1059 0.06093851 1.05
v -0.2148 0.248 1.05
v -0.25 0.3 -0.5
v 0.25 0.3 -0.5
v -0.15 0.5 -0.5
v 0.15 0.5 -0.5
v -0.05 0.5 -0.5
v 0.05 0.5 -0.5
v 0.15 0.5 0.5
v 0.05 0.5 0.5
v 0.25 0.3 0.5
v -0.25 0.3 0.5
v -0.15 0.5 0.5
v -0.05 0.5 0.5
v 0.2 0.4 -0.3
v 0.2 0.4 0.3
v 0.25 0.3 0.3
v 0.25 0.3 -0.3
v -0.25 0.3 0.3
v -0.2 0.4 0.3
v -0.2 0.4 -0.3
v -0.25 0.3 -0.3
v 0.15 -0.05000001 0.5
v -0.15 -0.05000001 0.5
v 0.15 0 0.5
v -0.15 0 0.5
v 0.15 -0.05000001 -0.5
v -0.15 -0.05000001 -0.5
v 0.15 0 -0.5
v -0.15 0 -0.5
v 0.2 0.25 -0.3
v 0.2 0.2 -0.3
v 0.2 0.25 0.3
v 0.2 0.1 -0.3
v 0.2 0.1 0.3
v 0.2 0.2 0.3
v 0.175 0.05000001 -0.3
v 0.175 0.05000001 0.3
v 0.25 0.25 0.3
v 0.25 0.25 -0.3
v -0.25 0.25 -0.3
v -0.25 0.25 0.3
v -0.2 0.25 0.3
v -0.2 0.25 -0.3
v -0.175 0.05000001 -0.3
v -0.2 0.1 -0.3
v -0.175 0.05000001 0.3
v -0.2 0.1 0.3
v -0.2 0.2 -0.3
v -0.2 0.2 0.3
v 0.2 0.2 0.5
v 0.2 0.1 0.5
v 0.2 0.1 -0.5
v 0.25 0.2 0.5
v -0.2 0.1 0.5
v -0.2 0.2 0.5
v -0.25 0.2 0.5
v -0.25 0.2 -0.5
v -0.25 0.2 -0.3
v 0.25 0.2 0.3
v -0.2 0.2 -0.5
v 0.2 0.2 -0.5
v 0.25 0.2 -0.5
v -0.2 0.1 -0.5
v 0.25 0.2 -0.3
v -0.25 0.2 0.3
v 0.05 -0.4 0.5
v -0.05 -0.4 0.5
v 0.05 0 0.5
v -0.05 0 0.5
v -0.05 -0.3 0.4
v 0.05 -0.3 0.4
v -0.05 -0.2 0.4
v 0.05 -0.2 0.4
v 0.2208 0.248 0.5549999
v 0.1119 0.06093851 0.5549999
v 0.1119 0.06093851 0.995
v -0.1059 0.06093851 0.995
v 0.2208 0.248 0.995
v -0.2148 0.248 0.995
v 0.1119 0.4350615 0.995
v -0.1059 0.4350615 0.995
v -0.2148 0.248 0.5549999
v -0.1059 0.06093851 0.5549999
v 0.1119 0.4350615 0.5549999
v -0.1059 0.4350615 0.5549999

vn 0 -0.7071068 -0.7071068
vn -1 0 0
vn 1 0 0
vn 0 -1 0
vn 0 0 1
vn -0.7071068 0.7071068 0
vn 0 1 0
vn 0.7071068 0.7071068 0
vn 0 0 -1
vn 0 -0.5547002 0.8320503
vn 0 0.7071068 -0.7071068
vn 0.8642193 -0.5031152 0
vn -0.8642193 0.5031152 0
vn -0.8642193 -0.5031152 0
vn 0.8642193 0.5031152 0
vn 0.8944272 0.4472136 0
vn -0.8944272 0.4472136 0
vn 0.8944272 -0.4472136 0
vn -0.8944272 -0.4472136 0
vn 0 0.5547002 -0.8320503

vt 1.2 0.6079518
vt 0.8 0.6079518
vt 1.2 0.7079518
vt 0.8 0.7079518
vt -0.8 0.7079518
vt -0.6 0.7079518
vt -0.7 0.6079518
vt -0.6 0.6079518
vt 0.7 0.6079518
vt 0.6 0.7079518
vt 0.6 0.6079518
vt 0.8 0.6
vt 0.8 0.7
vt 1.2 0.6
vt 1.2 0.7
vt -0.8 0.6079518
vt -1.2 0.6079518
vt -1.2 0.7079518
vt 0.8 0.8
vt 1.2 0.8
vt 0.8 0.9499999
vt 0.6 0.9499999
vt -0.8 0.9499999
vt -0.6 0.9499999
vt 1.2 -0.8
vt 1.15 -0.8
vt 1.2 -0.6
vt 1.15 -0.6
vt 0.85 -0.8
vt 0.85 -0.6
vt 0.8 1
vt 0.6 1
vt 1.2 0.9499999
vt 1.15 1
vt 0.85 1
vt -1.2 0.9499999
vt -0.85 1
vt -1.15 1
vt 0.9 0.1
vt 0.9 0.4
vt 1.1 0.1
vt 1.1 0.4
vt -0.9 0.3
vt -1.1 0.3
vt -0.9 0.6
vt -1.1 0.6
vt -0.95 0.6
vt -1.05 0.6
vt 0.9 0.3
vt 1.1 0.3
vt 0.95 -0.3
vt 0.9 -0.4
vt 1.1 -0.4
vt 1.05 -0.3
vt 1.05 0.1
vt 0.95 0.1
vt -0.9 1
vt -0.95 0.7
vt -0.95 0.8
vt -1.05 0.7
vt -0.95 1
vt -1.05 0.8
vt -1.1 1
vt -1.05 1
vt 0.9 0.9
vt 0.9 1
vt 1.1 0.9
vt 1.1 1
vt 1.1 0.8
vt 0.9 0.8
vt -0.5 0.4
vt -0.4 0.4
vt -0.4 0.3
vt -0.1 0.3
vt -0.3 0.4
vt -0.4 0.8
vt -0.4 1
vt -0.1535184 0.4
vt 1.443823E-15 0.6302776
vt 0.1 0.6
vt 1.443823E-15 0.8
vt -0.3 0.8
vt 0.1 1
vt -0.5 0.9
vt -0.5 0.8
vt 0.5 0.9
vt 0.5 0.8
vt 0.4 1
vt 0.4 0.8
vt -0.1 1
vt 0.3 0.8
vt 0.4 0.4
vt 0.4 0.3
vt -1.443823E-15 0.8
vt -1.443823E-15 0.6302776
vt 0.3 0.4
vt 0.1 0.3
vt 0.1535184 0.4
vt -0.1 0.6
vt 0.5 0.4
vt 0.8155 -0.0637307
vt 1.1059 0.06097699
vt 1.1785 -0.0637307
vt 1.36 0.2480385
vt 1.2148 0.2480385
vt 1.1785 0.5598076
vt 1.1059 0.4351
vt 0.8881 0.4351
vt 0.8881 0.06097699
vt 0.6339999 0.2480385
vt 0.7792 0.2480385
vt 0.8155 0.5598076
vt 0.8155 -0.06373068
vt 1.1422 -0.001376865
vt 1.1785 -0.06373068
vt 1.2874 0.2480385
vt 1.1785 0.5598077
vt 1.1422 0.4974538
vt 0.8518 0.4974538
vt 0.8518 -0.001376865
vt 0.7066 0.2480385
vt 0.8155 0.5598077
vt -0.94 0.2480385
vt -0.94 -0.06373068
vt -1.05 0.2480385
vt -1.05 -0.06373068
vt 0.94 0.5598077
vt 1.05 0.5598077
vt 0.94 0.2480385
vt 1.05 0.2480385
vt 0.8155 0.94
vt 0.8155 1.05
vt 1.1785 0.94
vt 1.1785 1.05
vt 0.5 0.2480385
vt 0.61 0.2480385
vt 0.5 -0.0637307
vt 0.61 -0.0637307
vt 0.8155 0.5
vt 0.8155 0.61
vt 1.1785 0.5
vt 1.1785 0.61
vt -0.5 0.5598076
vt -0.5 0.2480385
vt -0.61 0.5598076
vt -0.61 0.2480385
vt -0.5 -0.0637307
vt -0.61 -0.0637307
vt -1.1785 -0.0637307
vt -0.8518 -0.001376865
vt -0.8155 -0.0637307
vt -0.6339999 0.2480385
vt -0.7066 0.2480385
vt -0.8155 0.5598076
vt -0.8518 0.4974538
vt -1.1422 0.4974538
vt -1.1422 -0.001376865
vt -1.36 0.2480385
vt -1.2874 0.2480385
vt -1.1785 0.5598076
vt 0.94 -0.06373068
vt 1.05 -0.06373068
vt 0.8155 -1.05
vt 0.8155 -0.94
vt 1.1785 -1.05
vt 1.1785 -0.94
vt -1.1785 -0.06373068
vt -0.8881 0.06097699
vt -0.8155 -0.06373068
vt -0.7792 0.2480385
vt -0.8155 0.5598077
vt -0.8881 0.4351
vt -1.1059 0.4351
vt -1.1059 0.06097699
vt -1.2148 0.2480385
vt -1.1785 0.5598077
vt -0.94 0.5598077
vt -1.05 0.5598077
vt 0.8155 -0.61
vt 0.8155 -0.5
vt 1.1785 -0.61
vt 1.1785 -0.5
vt 0.5 0.5598076
vt 0.61 0.5598076
vt 1.25 0.3
vt 0.75 0.3
vt 1.15 0.5
vt 0.85 0.5
vt -1.05 0.5
vt -1.15 0.5
vt -0.85 0.5
vt -0.95 0.5
vt 0.85 -0.5
vt 0.95 -0.5
vt 0.95 0.5
vt -0.75 0.3
vt -1.25 0.3
vt 0.5 0.3
vt 0.3 0.4
vt 0.5 0.5
vt -0.5 0.5
vt -0.3 0.4
vt -0.3 0.3
vt -0.5 0.3
vt 0.3 0.3
vt 1.05 -0.5
vt 1.05 0.5
vt 1.15 -0.5
vt -0.85 -0.05000001
vt -1.15 -0.05000001
vt -0.85 0
vt -1.15 0
vt 0.5 0
vt 0.5 -0.05000001
vt -0.5 0
vt -0.5 -0.05000001
vt 1.15 -0.05000001
vt 0.85 -0.05000001
vt 1.15 0
vt 0.85 0
vt 0.3 0.25
vt 0.3 0.2
vt -0.3 0.25
vt 0.3 0.1
vt -0.3 0.1
vt -0.8 0.2
vt -0.8 0.25
vt -0.8 0.1
vt 0.3 0.05000001
vt -0.3 0.05000001
vt 0.75 -0.3
vt 0.8 -0.3
vt 0.8 0.3
vt 1.2 -0.3
vt 1.2 0.3
vt 1.25 -0.3
vt -0.3 0.2
vt -1.2 0.2
vt -1.2 0.1
vt -1.2 0.25
vt -0.5 0.2
vt -0.5 0.1
vt 0.5 0.1
vt -0.75 0.2
vt -1.25 0.2
vt -1.25 0.25
vt 0.5 0.2
vt 1.25 0.2
vt 1.2 0.2
vt 0.8 0.2
vt 0.75 0.2
vt 1.2 0.1
vt 0.8 0.1
vt -0.75 0.25
vt 0.75 -0.5
vt 0.8 -0.5
vt 0.8 0.25
vt 0.75 0.25
vt 0.75 0.5
vt 0.8 0.5
vt 1.2 -0.5
vt 1.25 -0.5
vt 1.25 0.25
vt 1.2 0.25
vt 1.2 0.5
vt 1.25 0.5
vt 1.05 0.7
vt 0.95 0.7
vt 1.05 0.8
vt 0.95 0.8
vt 0.95 -0.1
vt 1.05 -0.1
vt 1.1 0.6302776
vt 0.9 0.6302776
vt -0.9 0.4
vt -1.1 0.4
vt -0.9 0.8
vt -1.1 0.8
vt 0.9 -1.443823E-15
vt 1.1 -1.443823E-15
vt 0.9 -0.3
vt 0.9 -0.1535184
vt 1.1 -0.3
vt 1.1 -0.1535184
vt 0.95 0.4
vt 1.05 0.4
vt 0.1 0.7
vt 0.5 0.6
vt 0.4 0.7
vt 0.5 1
vt 0.1 0.8
vt 0.95 -0.4
vt 1.05 -0.4
vt -0.1 0.8
vt -0.5 1
vt -0.4 0.7
vt -0.5 0.6
vt -0.1 0.7
vt 0.8518 0.61
vt 0.8518 0.94
vt 1.1422 0.61
vt 1.1422 0.94
vt 0.8518 -0.94
vt 0.8518 -0.61
vt 1.1422 -0.94
vt 1.1422 -0.61
vt 0.61 0.4974538
vt 0.94 0.4974538
vt 0.61 -0.001376865
vt 0.94 -0.001376865
vt 0.5549999 0.2480385
vt 0.5 0.06097699
vt 0.5549999 0.06097699
vt -0.995 0.4351
vt -0.995 0.2480385
vt -1.05 0.4351
vt -0.5 0.06097699
vt -0.5549999 0.2480385
vt -0.5549999 0.06097699
vt 0.995 0.4351
vt 1.05 0.4351
vt 0.995 0.2480385
vt 0.995 0.06097699
vt 1.05 0.06097699
vt 0.5 0.4351
vt 0.5549999 0.4351
vt -0.61 -0.001376865
vt -0.94 -0.001376865
vt -0.995 0.06097699
vt -1.05 0.06097699
vt 0.8881 -0.5549999
vt 0.8881 -0.5
vt 1.1059 -0.5549999
vt 1.1059 -0.5
vt 0.8881 0.5
vt 0.8881 0.5549999
vt 1.1059 0.5
vt 1.1059 0.5549999
vt -0.61 0.4974538
vt -0.94 0.4974538
vt 0.8881 -1.05
vt 0.8881 -0.995
vt 1.1059 -1.05
vt 1.1059 -0.995
vt -0.5 0.4351
vt -0.5549999 0.4351
vt 0.8881 0.995
vt 0.8881 1.05
vt 1.1059 0.995
vt 1.1059 1.05

usemtl custom3

f 3/3/1 2/2/1 1/1/1
f 2/2/1 3/3/1 4/4/1
f 1/7/2 5/6/2 3/5/2
f 5/6/2 1/7/2 6/8/2
f 7/10/3 2/9/3 4/4/3
f 2/9/3 7/10/3 8/11/3
f 6/14/4 2/13/4 8/12/4
f 2/13/4 6/14/4 1/15/4
f 7/5/5 6/17/5 8/16/5
f 6/17/5 7/5/5 5/18/5
f 5/14/4 4/19/4 7/12/4
f 4/19/4 5/14/4 3/20/4
f 9/21/3 7/10/3 4/4/3
f 7/10/3 9/21/3 10/22/3
f 5/6/2 11/23/2 3/5/2
f 11/23/2 5/6/2 12/24/2
f 12/27/6 13/26/6 11/25/6
f 13/26/6 12/27/6 14/28/6
f 13/26/7 16/30/7 15/29/7
f 16/30/7 13/26/7 14/28/7
f 16/32/8 9/21/8 15/31/8
f 9/21/8 16/32/8 10/22/8
f 11/33/9 4/4/9 3/3/9
f 4/4/9 11/33/9 9/21/9
f 9/21/9 11/33/9 13/34/9
f 9/21/9 13/34/9 15/35/9
f 10/23/5 5/18/5 7/5/5
f 5/18/5 10/23/5 12/36/5
f 12/36/5 10/23/5 16/37/5
f 12/36/5 16/37/5 14/38/5
f 19/41/4 18/40/4 17/39/4
f 18/40/4 19/41/4 20/42/4
f 21/45/10 19/44/10 17/43/10
f 19/44/10 21/45/10 22/46/10
f 22/46/10 21/45/10 23/47/10
f 22/46/10 23/47/10 24/48/10
f 20/50/1 25/40/1 18/49/1
f 25/40/1 20/50/1 26/42/1
f 29/52/7 28/51/7 27/39/7
f 28/51/7 29/52/7 30/53/7
f 28/51/7 30/53/7 31/54/7
f 31/54/7 30/53/7 32/55/7
f 32/55/7 30/53/7 33/41/7
f 34/56/7 27/39/7 28/51/7
f 27/57/5 23/47/5 21/45/5
f 23/47/5 27/57/5 35/58/5
f 35/58/5 27/57/5 36/59/5
f 35/58/5 36/59/5 37/60/5
f 36/59/5 27/57/5 34/61/5
f 38/62/5 37/60/5 36/59/5
f 33/63/5 37/60/5 38/62/5
f 22/46/5 37/60/5 33/63/5
f 37/60/5 22/46/5 24/48/5
f 33/63/5 38/62/5 32/64/5
f 40/67/11 29/66/11 39/65/11
f 29/66/11 40/67/11 30/68/11
f 40/67/9 42/70/9 41/69/9
f 42/70/9 40/67/9 39/65/9
f 20/73/2 43/72/2 26/71/2
f 43/72/2 20/73/2 19/74/2
f 43/72/2 19/74/2 44/75/2
f 43/72/2 44/75/2 45/76/2
f 45/76/2 44/75/2 30/77/2
f 44/75/2 19/74/2 46/78/2
f 46/78/2 19/74/2 47/79/2
f 47/79/2 19/74/2 22/80/2
f 47/79/2 22/80/2 48/81/2
f 49/82/2 30/77/2 44/75/2
f 30/77/2 49/82/2 33/83/2
f 33/83/2 49/82/2 48/81/2
f 33/83/2 48/81/2 22/80/2
f 40/84/2 45/76/2 30/77/2
f 45/76/2 40/84/2 41/85/2
f 29/88/3 42/87/3 39/86/3
f 42/87/3 29/88/3 50/89/3
f 50/89/3 29/88/3 27/90/3
f 50/89/3 27/90/3 51/91/3
f 50/89/3 51/91/3 52/92/3
f 52/92/3 51/91/3 18/93/3
f 51/91/3 27/90/3 53/94/3
f 53/94/3 27/90/3 54/95/3
f 55/96/3 18/93/3 51/91/3
f 18/93/3 55/96/3 17/97/3
f 17/97/3 55/96/3 56/98/3
f 17/97/3 56/98/3 54/95/3
f 17/97/3 54/95/3 21/99/3
f 21/99/3 54/95/3 27/90/3
f 18/93/3 25/100/3 52/92/3
f 59/103/9 58/102/9 57/101/9
f 58/102/9 59/103/9 60/104/9
f 58/102/9 60/104/9 61/105/9
f 61/105/9 60/104/9 62/106/9
f 61/105/9 62/106/9 63/107/9
f 63/107/9 62/106/9 64/108/9
f 65/109/9 57/101/9 58/102/9
f 57/101/9 65/109/9 66/110/9
f 66/110/9 65/109/9 67/111/9
f 66/110/9 67/111/9 64/108/9
f 66/110/9 64/108/9 68/112/9
f 68/112/9 64/108/9 62/106/9
f 71/115/9 70/114/9 69/113/9
f 70/114/9 71/115/9 72/104/9
f 70/114/9 72/104/9 73/116/9
f 73/116/9 72/104/9 74/117/9
f 73/116/9 74/117/9 75/118/9
f 75/118/9 74/117/9 76/119/9
f 77/120/9 69/113/9 70/114/9
f 69/113/9 77/120/9 78/110/9
f 78/110/9 77/120/9 79/121/9
f 78/110/9 79/121/9 76/119/9
f 78/110/9 76/119/9 80/122/9
f 80/122/9 76/119/9 74/117/9
f 81/125/12 69/124/12 78/123/12
f 69/124/12 81/125/12 82/126/12
f 72/129/13 83/128/13 74/127/13
f 83/128/13 72/129/13 84/130/13
f 74/133/7 85/132/7 80/131/7
f 85/132/7 74/133/7 83/134/7
f 59/137/14 86/136/14 60/135/14
f 86/136/14 59/137/14 87/138/14
f 62/141/7 88/140/7 68/139/7
f 88/140/7 62/141/7 89/142/7
f 88/145/15 66/144/15 68/143/15
f 66/144/15 88/145/15 90/146/15
f 90/146/12 57/147/12 66/144/12
f 57/147/12 90/146/12 91/148/12
f 91/151/5 92/150/5 87/149/5
f 92/150/5 91/151/5 90/152/5
f 92/150/5 90/152/5 93/153/5
f 93/153/5 90/152/5 88/154/5
f 93/153/5 88/154/5 94/155/5
f 94/155/5 88/154/5 95/156/5
f 96/157/5 87/149/5 92/150/5
f 87/149/5 96/157/5 86/158/5
f 86/158/5 96/157/5 97/159/5
f 86/158/5 97/159/5 95/156/5
f 86/158/5 95/156/5 89/160/5
f 89/160/5 95/156/5 88/154/5
f 71/161/14 84/130/14 72/129/14
f 84/130/14 71/161/14 98/162/14
f 98/165/4 69/164/4 82/163/4
f 69/164/4 98/165/4 71/166/4
f 82/169/5 99/168/5 98/167/5
f 99/168/5 82/169/5 81/152/5
f 99/168/5 81/152/5 100/170/5
f 100/170/5 81/152/5 85/171/5
f 100/170/5 85/171/5 101/172/5
f 101/172/5 85/171/5 102/173/5
f 103/174/5 98/167/5 99/168/5
f 98/167/5 103/174/5 84/158/5
f 84/158/5 103/174/5 104/175/5
f 84/158/5 104/175/5 102/173/5
f 84/158/5 102/173/5 83/176/5
f 83/176/5 102/173/5 85/171/5
f 85/178/15 78/123/15 80/177/15
f 78/123/15 85/178/15 81/125/15
f 87/181/4 57/180/4 91/179/4
f 57/180/4 87/181/4 59/182/4
f 60/135/13 89/184/13 62/183/13
f 89/184/13 60/135/13 86/136/13

usemtl custom4

f 107/187/9 106/186/9 105/185/9
f 106/186/9 107/187/9 108/188/9
f 108/191/9 107/190/9 109/189/9
f 108/191/9 109/189/9 110/192/9
f 110/194/7 111/188/7 108/193/7
f 111/188/7 110/194/7 112/195/7
f 111/191/5 114/197/5 113/196/5
f 114/197/5 111/191/5 115/190/5
f 115/190/5 111/191/5 112/192/5
f 115/190/5 112/192/5 116/189/5
f 108/200/16 117/199/16 106/198/16
f 117/199/16 108/200/16 111/201/16
f 117/199/16 111/201/16 118/202/16
f 118/202/16 111/201/16 119/203/16
f 119/203/16 111/201/16 113/204/16
f 120/205/16 106/198/16 117/199/16
f 107/208/7 116/207/7 109/206/7
f 116/207/7 107/208/7 115/187/7
f 114/198/17 122/199/17 121/205/17
f 115/200/17 122/199/17 114/198/17
f 115/200/17 123/202/17 122/199/17
f 107/201/17 123/202/17 115/200/17
f 107/201/17 124/203/17 123/202/17
f 124/203/17 107/201/17 105/204/17
f 127/211/5 126/210/5 125/209/5
f 126/210/5 127/211/5 128/212/5
f 126/208/4 129/188/4 125/193/4
f 129/188/4 126/208/4 130/187/4
f 127/215/3 129/214/3 131/213/3
f 129/214/3 127/215/3 125/216/3
f 132/219/9 129/218/9 130/217/9
f 129/218/9 132/219/9 131/220/9
f 126/214/2 132/215/2 130/216/2
f 132/215/2 126/214/2 128/213/2
f 135/223/3 134/222/3 133/221/3
f 134/222/3 135/223/3 136/224/3
f 136/224/3 135/223/3 137/225/3
f 137/228/3 135/227/3 138/226/3
f 137/225/18 139/229/18 136/224/18
f 139/229/18 137/225/18 140/230/18
f 135/232/4 142/186/4 141/231/4
f 142/186/4 135/232/4 133/233/4
f 119/203/3 142/221/3 120/205/3
f 142/221/3 119/203/3 141/223/3
f 144/221/2 124/203/2 143/223/2
f 124/203/2 144/221/2 121/205/2
f 144/236/4 146/235/4 145/234/4
f 146/235/4 144/236/4 143/185/4
f 121/205/17 123/202/17 124/203/17
f 123/202/17 121/205/17 122/199/17
f 149/229/19 148/225/19 147/230/19
f 148/225/19 149/229/19 150/224/19
f 150/224/2 151/237/2 148/225/2
f 151/237/2 150/224/2 146/223/2
f 146/223/2 150/224/2 145/221/2
f 145/240/2 150/239/2 152/238/2
f 118/202/16 120/205/16 117/199/16
f 120/205/16 118/202/16 119/203/16
f 109/206/7 112/195/7 110/194/7
f 112/195/7 109/206/7 116/207/7
f 153/241/3 137/225/3 138/237/3
f 137/225/3 153/241/3 154/242/3
f 154/242/18 140/230/18 137/225/18
f 136/224/18 131/213/18 155/243/18
f 131/213/18 136/224/18 139/229/18
f 131/213/18 139/229/18 127/215/18
f 127/215/18 139/229/18 140/230/18
f 127/215/18 140/230/18 154/242/18
f 113/196/5 153/226/5 156/244/5
f 154/228/5 128/212/5 127/211/5
f 128/212/5 154/228/5 157/239/5
f 157/239/5 154/228/5 153/226/5
f 157/239/5 153/226/5 158/238/5
f 158/238/5 153/226/5 159/245/5
f 159/245/5 153/226/5 114/197/5
f 114/197/5 153/226/5 113/196/5
f 160/241/2 124/203/2 105/204/2
f 124/203/2 160/241/2 161/237/2
f 124/197/2 161/245/2 143/246/2
f 157/243/2 152/222/2 150/224/2
f 152/222/2 157/243/2 158/247/2
f 113/204/3 141/223/3 119/203/3
f 141/223/3 113/204/3 162/237/3
f 162/237/3 113/204/3 156/241/3
f 105/185/9 163/249/9 160/248/9
f 163/249/9 105/185/9 164/250/9
f 164/250/9 105/185/9 165/251/9
f 165/251/9 105/185/9 106/186/9
f 166/252/9 131/220/9 132/219/9
f 131/220/9 166/252/9 155/253/9
f 155/253/9 166/252/9 163/249/9
f 155/253/9 163/249/9 164/250/9
f 132/215/19 147/230/19 166/242/19
f 147/230/19 132/215/19 128/213/19
f 147/230/19 128/213/19 149/229/19
f 149/229/19 128/213/19 150/224/19
f 150/224/19 128/213/19 157/243/19
f 148/225/19 166/242/19 147/230/19
f 164/247/3 136/224/3 155/243/3
f 136/224/3 164/247/3 134/222/3
f 120/205/3 165/247/3 106/198/3
f 165/247/3 120/205/3 167/222/3
f 167/244/3 120/196/3 142/254/3
f 159/247/2 144/221/2 168/222/2
f 144/221/2 159/247/2 121/205/2
f 121/205/2 159/247/2 114/198/2
f 148/225/2 163/241/2 166/242/2
f 163/241/2 148/225/2 151/237/2
f 153/256/4 162/231/4 156/255/4
f 162/231/4 153/256/4 138/232/4
f 135/257/9 162/251/9 138/250/9
f 162/251/9 135/257/9 141/258/9
f 134/233/4 165/259/4 167/186/4
f 165/259/4 134/233/4 164/260/4
f 142/254/5 134/226/5 167/244/5
f 134/226/5 142/254/5 133/227/5
f 159/262/4 152/234/4 158/261/4
f 152/234/4 159/262/4 168/236/4
f 144/263/9 152/249/9 168/248/9
f 152/249/9 144/263/9 145/264/9
f 151/235/4 160/266/4 163/265/4
f 160/266/4 151/235/4 161/185/4
f 146/240/5 161/245/5 151/238/5
f 161/245/5 146/240/5 143/246/5
f 171/61/5 170/48/5 169/47/5
f 170/48/5 171/61/5 172/64/5
f 50/89/3 25/100/3 42/87/3
f 25/100/3 50/89/3 52/92/3
f 41/69/9 25/40/9 26/42/9
f 25/40/9 41/69/9 42/70/9
f 175/269/9 174/268/9 173/267/9
f 174/268/9 175/269/9 176/270/9
f 31/54/7 34/56/7 28/51/7
f 34/56/7 31/54/7 171/195/7
f 171/195/7 31/54/7 172/207/7
f 172/64/7 31/64/7 32/64/7
f 170/206/4 23/271/4 169/194/4
f 23/271/4 170/206/4 24/272/4
f 48/69/9 54/274/9 47/273/9
f 54/274/9 48/69/9 53/70/9
f 51/277/5 44/276/5 55/275/5
f 44/276/5 51/277/5 49/278/5
f 48/280/4 51/49/4 53/279/4
f 51/49/4 48/280/4 49/50/4
f 43/72/2 41/85/2 26/71/2
f 41/85/2 43/72/2 45/76/2
f 44/283/7 56/282/7 55/281/7
f 56/282/7 44/283/7 46/284/7
f 47/273/20 56/40/20 46/42/20
f 56/40/20 47/273/20 54/274/20
f 37/55/7 174/285/7 35/56/7
f 174/285/7 37/55/7 173/286/7
f 170/288/2 37/287/2 24/80/2
f 37/287/2 170/288/2 173/289/2
f 173/289/2 170/288/2 175/89/2
f 172/290/2 175/89/2 170/288/2
f 172/290/2 38/291/2 175/89/2
f 38/291/2 172/290/2 32/83/2
f 175/293/4 36/271/4 176/292/4
f 36/271/4 175/293/4 38/272/4
f 171/295/3 36/294/3 34/90/3
f 36/294/3 171/295/3 176/76/3
f 176/76/3 171/295/3 174/296/3
f 169/297/3 174/296/3 171/295/3
f 169/297/3 35/298/3 174/296/3
f 35/298/3 169/297/3 23/99/3
f 95/301/7 76/300/7 94/299/7
f 76/300/7 95/301/7 75/302/7
f 70/305/4 92/304/4 77/303/4
f 92/304/4 70/305/4 96/306/4
f 97/136/13 75/308/13 95/307/13
f 75/308/13 97/136/13 73/129/13
f 96/309/14 73/129/14 97/136/14
f 73/129/14 96/309/14 70/310/14
f 65/312/13 177/311/13 67/135/13
f 177/311/13 65/312/13 178/313/13
f 181/170/5 180/174/5 179/168/5
f 180/174/5 181/170/5 182/175/5
f 182/175/5 181/170/5 183/172/5
f 182/175/5 183/172/5 184/173/5
f 102/316/12 182/315/12 184/314/12
f 182/315/12 102/316/12 104/125/12
f 185/318/15 58/317/15 61/144/15
f 58/317/15 185/318/15 186/319/15
f 181/322/14 101/321/14 183/320/14
f 101/321/14 181/322/14 100/130/14
f 179/323/13 100/130/13 181/322/13
f 100/130/13 179/323/13 99/324/13
f 67/135/14 187/326/14 64/325/14
f 187/326/14 67/135/14 177/311/14
f 79/123/12 92/327/12 93/146/12
f 92/327/12 79/123/12 77/328/12
f 185/105/9 178/109/9 186/102/9
f 178/109/9 185/105/9 177/111/9
f 177/111/9 185/105/9 188/107/9
f 177/111/9 188/107/9 187/108/9
f 104/125/15 180/329/15 182/315/15
f 180/329/15 104/125/15 103/330/15
f 188/333/4 64/332/4 187/331/4
f 64/332/4 188/333/4 63/334/4
f 58/337/7 178/336/7 65/335/7
f 178/336/7 58/337/7 186/338/7
f 76/340/15 93/146/15 94/339/15
f 93/146/15 76/340/15 79/123/15
f 102/343/4 183/342/4 101/341/4
f 183/342/4 102/343/4 184/344/4
f 188/346/12 61/144/12 63/345/12
f 61/144/12 188/346/12 185/318/12
f 180/349/7 99/348/7 179/347/7
f 99/348/7 180/349/7 103/350/7

